name C:\Users\u0101727\Documents\MyRepositories\upper-imu-dc\OpenSim\subject0\MA\ResultsMA\grid_4nodes_9dim\angles_9.mot
datacolumns 10
datarows 37
range 950.01000000 950.37000000
endheader 
time	clav_prot	clav_elev	scapula_abduction	scapula_elevation	scapula_upward_rot	scapula_winging	plane_elv	shoulder_elv	axial_rot	
        950.01000000	        -50.00000000	         10.00000000	        -21.66666667	        -10.00000000	         90.00000000	        -20.00000000	         90.00000000	         26.66666667	        -30.00000000	
        950.02000000	        -38.33333333	         10.00000000	        -21.66666667	        -10.00000000	         90.00000000	        -20.00000000	         90.00000000	         26.66666667	        -30.00000000	
        950.03000000	        -26.66666667	         10.00000000	        -21.66666667	        -10.00000000	         90.00000000	        -20.00000000	         90.00000000	         26.66666667	        -30.00000000	
        950.04000000	        -15.00000000	         10.00000000	        -21.66666667	        -10.00000000	         90.00000000	        -20.00000000	         90.00000000	         26.66666667	        -30.00000000	
        950.05000000	        -50.00000000	         20.00000000	        -21.66666667	        -10.00000000	         90.00000000	        -20.00000000	         90.00000000	         26.66666667	        -30.00000000	
        950.06000000	        -38.33333333	         20.00000000	        -21.66666667	        -10.00000000	         90.00000000	        -20.00000000	         90.00000000	         26.66666667	        -30.00000000	
        950.07000000	        -26.66666667	         20.00000000	        -21.66666667	        -10.00000000	         90.00000000	        -20.00000000	         90.00000000	         26.66666667	        -30.00000000	
        950.08000000	        -15.00000000	         20.00000000	        -21.66666667	        -10.00000000	         90.00000000	        -20.00000000	         90.00000000	         26.66666667	        -30.00000000	
        950.09000000	        -50.00000000	        -10.00000000	         -3.33333333	        -10.00000000	         90.00000000	        -20.00000000	         90.00000000	         26.66666667	        -30.00000000	
        950.10000000	        -38.33333333	        -10.00000000	         -3.33333333	        -10.00000000	         90.00000000	        -20.00000000	         90.00000000	         26.66666667	        -30.00000000	
        950.11000000	        -26.66666667	        -10.00000000	         -3.33333333	        -10.00000000	         90.00000000	        -20.00000000	         90.00000000	         26.66666667	        -30.00000000	
        950.12000000	        -15.00000000	        -10.00000000	         -3.33333333	        -10.00000000	         90.00000000	        -20.00000000	         90.00000000	         26.66666667	        -30.00000000	
        950.13000000	        -50.00000000	          0.00000000	         -3.33333333	        -10.00000000	         90.00000000	        -20.00000000	         90.00000000	         26.66666667	        -30.00000000	
        950.14000000	        -38.33333333	          0.00000000	         -3.33333333	        -10.00000000	         90.00000000	        -20.00000000	         90.00000000	         26.66666667	        -30.00000000	
        950.15000000	        -26.66666667	          0.00000000	         -3.33333333	        -10.00000000	         90.00000000	        -20.00000000	         90.00000000	         26.66666667	        -30.00000000	
        950.16000000	        -15.00000000	          0.00000000	         -3.33333333	        -10.00000000	         90.00000000	        -20.00000000	         90.00000000	         26.66666667	        -30.00000000	
        950.17000000	        -50.00000000	         10.00000000	         -3.33333333	        -10.00000000	         90.00000000	        -20.00000000	         90.00000000	         26.66666667	        -30.00000000	
        950.18000000	        -38.33333333	         10.00000000	         -3.33333333	        -10.00000000	         90.00000000	        -20.00000000	         90.00000000	         26.66666667	        -30.00000000	
        950.19000000	        -26.66666667	         10.00000000	         -3.33333333	        -10.00000000	         90.00000000	        -20.00000000	         90.00000000	         26.66666667	        -30.00000000	
        950.20000000	        -15.00000000	         10.00000000	         -3.33333333	        -10.00000000	         90.00000000	        -20.00000000	         90.00000000	         26.66666667	        -30.00000000	
        950.21000000	        -50.00000000	         20.00000000	         -3.33333333	        -10.00000000	         90.00000000	        -20.00000000	         90.00000000	         26.66666667	        -30.00000000	
        950.22000000	        -38.33333333	         20.00000000	         -3.33333333	        -10.00000000	         90.00000000	        -20.00000000	         90.00000000	         26.66666667	        -30.00000000	
        950.23000000	        -26.66666667	         20.00000000	         -3.33333333	        -10.00000000	         90.00000000	        -20.00000000	         90.00000000	         26.66666667	        -30.00000000	
        950.24000000	        -15.00000000	         20.00000000	         -3.33333333	        -10.00000000	         90.00000000	        -20.00000000	         90.00000000	         26.66666667	        -30.00000000	
        950.25000000	        -50.00000000	        -10.00000000	         15.00000000	        -10.00000000	         90.00000000	        -20.00000000	         90.00000000	         26.66666667	        -30.00000000	
        950.26000000	        -38.33333333	        -10.00000000	         15.00000000	        -10.00000000	         90.00000000	        -20.00000000	         90.00000000	         26.66666667	        -30.00000000	
        950.27000000	        -26.66666667	        -10.00000000	         15.00000000	        -10.00000000	         90.00000000	        -20.00000000	         90.00000000	         26.66666667	        -30.00000000	
        950.28000000	        -15.00000000	        -10.00000000	         15.00000000	        -10.00000000	         90.00000000	        -20.00000000	         90.00000000	         26.66666667	        -30.00000000	
        950.29000000	        -50.00000000	          0.00000000	         15.00000000	        -10.00000000	         90.00000000	        -20.00000000	         90.00000000	         26.66666667	        -30.00000000	
        950.30000000	        -38.33333333	          0.00000000	         15.00000000	        -10.00000000	         90.00000000	        -20.00000000	         90.00000000	         26.66666667	        -30.00000000	
        950.31000000	        -26.66666667	          0.00000000	         15.00000000	        -10.00000000	         90.00000000	        -20.00000000	         90.00000000	         26.66666667	        -30.00000000	
        950.32000000	        -15.00000000	          0.00000000	         15.00000000	        -10.00000000	         90.00000000	        -20.00000000	         90.00000000	         26.66666667	        -30.00000000	
        950.33000000	        -50.00000000	         10.00000000	         15.00000000	        -10.00000000	         90.00000000	        -20.00000000	         90.00000000	         26.66666667	        -30.00000000	
        950.34000000	        -38.33333333	         10.00000000	         15.00000000	        -10.00000000	         90.00000000	        -20.00000000	         90.00000000	         26.66666667	        -30.00000000	
        950.35000000	        -26.66666667	         10.00000000	         15.00000000	        -10.00000000	         90.00000000	        -20.00000000	         90.00000000	         26.66666667	        -30.00000000	
        950.36000000	        -15.00000000	         10.00000000	         15.00000000	        -10.00000000	         90.00000000	        -20.00000000	         90.00000000	         26.66666667	        -30.00000000	
        950.37000000	        -50.00000000	         20.00000000	         15.00000000	        -10.00000000	         90.00000000	        -20.00000000	         90.00000000	         26.66666667	        -30.00000000	
